<?xml version="1.0" standalone="no"?>
<!DOCTYPE svg PUBLIC "-//W3C//DTD SVG 20010904//EN"
 "http://www.w3.org/TR/2001/REC-SVG-20010904/DTD/svg10.dtd">
<svg version="1.0" xmlns="http://www.w3.org/2000/svg"
 width="155.000000pt" height="155.000000pt" viewBox="0 0 155.000000 155.000000"
 preserveAspectRatio="xMidYMid meet">
<metadata>
Created by potrace 1.11, written by Peter Selinger 2001-2013
</metadata>
<g transform="translate(0.000000,155.000000) scale(0.100000,-0.100000)"
fill="#000000" stroke="none">
<path d="M83 1163 c-40 -8 -73 -52 -73 -97 0 -57 21 -81 91 -107 85 -31 109
-72 70 -120 -27 -34 -86 -32 -117 5 -13 15 -24 36 -24 47 0 11 -7 19 -16 19
-13 0 -15 -8 -9 -52 4 -29 9 -55 12 -58 3 -3 40 -5 84 -5 72 0 81 2 106 28 22
22 28 37 28 71 0 55 -19 78 -93 106 -70 28 -96 54 -87 89 17 73 124 66 140 -9
10 -47 25 -35 25 19 0 32 -5 51 -14 54 -23 9 -100 15 -123 10z"/>
<path d="M840 1145 c0 -9 9 -15 25 -15 l25 0 0 -155 0 -155 -25 0 c-14 0 -25
-4 -25 -10 0 -6 33 -10 80 -10 47 0 80 4 80 10 0 6 -11 10 -25 10 -24 0 -25 3
-25 58 l0 57 62 12 c81 16 113 46 113 107 0 80 -47 106 -197 106 -72 0 -88 -3
-88 -15z m210 -35 c29 -29 27 -84 -5 -115 -16 -17 -35 -25 -60 -25 l-35 0 0
80 0 80 40 0 c27 0 47 -7 60 -20z"/>
<path d="M313 1133 c-16 -6 -17 -35 -1 -51 16 -16 23 -15 42 4 12 12 13 20 6
35 -11 19 -23 22 -47 12z"/>
<path d="M465 1008 c-38 -21 -48 -61 -19 -72 23 -9 46 13 39 35 -5 16 -1 19
23 19 30 0 42 -14 42 -50 0 -13 -10 -19 -40 -23 -62 -8 -90 -31 -90 -72 0 -24
6 -37 19 -45 28 -15 77 -12 91 5 11 13 14 13 27 -1 18 -17 64 -15 71 4 2 6 -3
12 -11 12 -12 0 -16 18 -19 81 -3 70 -6 83 -27 100 -26 21 -75 24 -106 7z m80
-135 c-9 -39 -25 -54 -49 -51 -14 2 -22 12 -24 30 -3 23 2 29 30 37 49 14 51
13 43 -16z"/>
<path d="M1263 1005 c-13 -9 -23 -11 -23 -6 0 6 -20 11 -45 11 -33 0 -45 -4
-45 -15 0 -8 9 -15 20 -15 18 0 20 -7 20 -80 0 -73 -2 -80 -20 -80 -11 0 -20
-4 -20 -10 0 -6 28 -10 65 -10 37 0 65 4 65 10 0 6 -9 10 -20 10 -18 0 -20 7
-20 63 0 66 20 117 33 83 8 -21 46 -21 54 0 7 20 -8 48 -28 52 -8 1 -24 -5
-36 -13z"/>
<path d="M1414 1010 c-64 -25 -87 -132 -41 -186 33 -38 110 -45 150 -14 25 20
27 27 27 96 0 73 -1 75 -32 94 -35 21 -69 24 -104 10z m86 -39 c18 -35 12
-119 -10 -141 -24 -24 -39 -25 -65 -6 -15 11 -19 27 -20 73 0 37 5 66 14 76
19 23 68 22 81 -2z"/>
<path d="M270 995 c0 -8 9 -15 20 -15 18 0 20 -7 20 -80 0 -73 -2 -80 -20 -80
-11 0 -20 -4 -20 -10 0 -6 27 -10 60 -10 33 0 60 4 60 10 0 6 -7 10 -15 10
-12 0 -15 17 -15 95 l0 95 -45 0 c-33 0 -45 -4 -45 -15z"/>
<path d="M680 920 c0 -18 7 -20 55 -20 48 0 55 2 55 20 0 18 -7 20 -55 20 -48
0 -55 -2 -55 -20z"/>
<path d="M1200 630 c0 -5 7 -10 15 -10 24 0 22 -188 -2 -206 -16 -12 -12 -13
30 -14 26 0 47 5 47 10 0 6 -4 10 -10 10 -6 0 -10 43 -10 110 l0 110 -35 0
c-19 0 -35 -4 -35 -10z"/>
<path d="M1300 630 c0 -5 7 -10 15 -10 24 0 22 -188 -2 -206 -16 -12 -12 -13
30 -14 26 0 47 5 47 10 0 6 -4 10 -10 10 -6 0 -10 43 -10 110 l0 110 -35 0
c-19 0 -35 -4 -35 -10z"/>
<path d="M1425 630 c-9 -14 6 -170 15 -170 10 0 24 155 15 169 -8 14 -22 14
-30 1z"/>
<path d="M1515 630 c-9 -14 6 -170 15 -170 10 0 24 155 15 169 -8 14 -22 14
-30 1z"/>
<path d="M544 540 c-46 -18 -37 -70 16 -88 16 -6 30 -18 30 -26 0 -23 -38 -20
-52 4 -17 27 -28 25 -28 -4 0 -39 61 -50 100 -18 32 26 19 56 -30 76 -43 17
-50 30 -23 41 12 4 24 -1 35 -14 21 -27 28 -26 28 3 0 31 -34 43 -76 26z"/>
<path d="M683 540 c-47 -19 -57 -87 -18 -125 13 -14 35 -25 48 -25 26 0 57 28
57 50 0 9 -7 6 -20 -8 -12 -12 -26 -22 -33 -22 -19 0 -37 21 -37 42 0 15 9 18
50 18 58 0 65 16 25 55 -26 27 -37 29 -72 15z m45 -22 c19 -19 14 -28 -18 -28
-16 0 -30 4 -30 8 0 9 21 32 30 32 3 0 11 -5 18 -12z"/>
<path d="M843 540 c-47 -19 -57 -87 -18 -125 13 -14 35 -25 48 -25 26 0 57 28
57 50 0 9 -7 6 -20 -8 -12 -12 -26 -22 -33 -22 -19 0 -37 21 -37 42 0 15 9 18
50 18 58 0 65 16 25 55 -26 27 -37 29 -72 15z m45 -22 c19 -19 14 -28 -18 -28
-16 0 -30 4 -30 8 0 9 21 32 30 32 3 0 11 -5 18 -12z"/>
<path d="M1083 540 c-29 -12 -31 -50 -3 -50 13 0 20 7 20 20 0 23 10 26 28 8
21 -21 14 -38 -16 -38 -47 0 -79 -49 -50 -78 15 -15 54 -16 63 -2 4 7 13 6 27
-1 14 -8 23 -8 31 0 8 8 8 11 -1 11 -8 0 -12 20 -12 60 0 48 -4 61 -19 70 -23
12 -38 12 -68 0z m50 -99 c-6 -23 -29 -35 -39 -20 -10 17 4 39 25 39 14 0 18
-5 14 -19z"/>
<path d="M1417 426 c-3 -8 1 -20 9 -27 12 -10 18 -9 31 3 8 9 12 21 9 27 -10
16 -43 14 -49 -3z"/>
<path d="M1507 426 c-7 -17 18 -40 33 -31 5 3 10 15 10 26 0 23 -35 27 -43 5z"/>
</g>
</svg>
